name ./resultDataOpenSim/trcMotMarkerGrf/sub06/grf-15-03.mot
datacolumns 19
datarows 27
range 1.04000000 1.14400000
endheader

                time	     ground_force_vx	     ground_force_vy	     ground_force_vz	     ground_force_px	     ground_force_py	     ground_force_pz	   l_ground_force_vx	   l_ground_force_vy	   l_ground_force_vz	   l_ground_force_px	   l_ground_force_py	   l_ground_force_pz	     ground_torque_x	     ground_torque_y	     ground_torque_z	   l_ground_torque_x	   l_ground_torque_y	   l_ground_torque_z	
          1.04000000	          0.00000000	          0.00000000	          0.00000000	          0.00000000	          0.00000000	          0.00000000	         92.59398310	        583.14530525	         17.77192453	          0.14766830	         -0.10000000	         -0.04644142	          0.00000000	          0.00000000	          0.00000000	          0.00000000	         -3.66944784	          0.00000000	
          1.04400000	          0.00000000	          0.00000000	          0.00000000	          0.00000000	          0.00000000	          0.00000000	         94.56093028	        581.72479336	         17.64752614	          0.14835691	         -0.10000000	         -0.04585326	          0.00000000	          0.00000000	          0.00000000	          0.00000000	         -3.67719517	          0.00000000	
          1.04800000	          0.00000000	          0.00000000	          0.00000000	          0.00000000	          0.00000000	          0.00000000	         96.47299586	        580.05341697	         17.22027383	          0.14901962	         -0.10000000	         -0.04520661	          0.00000000	          0.00000000	          0.00000000	          0.00000000	         -3.68164179	          0.00000000	
          1.05200000	          0.00000000	          0.00000000	          0.00000000	          0.00000000	          0.00000000	          0.00000000	         98.30771716	        577.77767832	         16.50605570	          0.14968549	         -0.10000000	         -0.04450957	          0.00000000	          0.00000000	          0.00000000	          0.00000000	         -3.68311385	          0.00000000	
          1.05600000	          0.00000000	          0.00000000	          0.00000000	          0.00000000	          0.00000000	          0.00000000	        100.06897703	        574.47354296	         15.50809203	          0.15039016	         -0.10000000	         -0.04378145	          0.00000000	          0.00000000	          0.00000000	          0.00000000	         -3.68065234	          0.00000000	
          1.06000000	          0.00000000	          0.00000000	          0.00000000	          0.00000000	          0.00000000	          0.00000000	        101.78757529	        569.75450337	         14.23535910	          0.15116972	         -0.10000000	         -0.04304072	          0.00000000	          0.00000000	          0.00000000	          0.00000000	         -3.67267843	          0.00000000	
          1.06400000	          0.00000000	          0.00000000	          0.00000000	          0.00000000	          0.00000000	          0.00000000	        103.49689916	        563.35724875	         12.73123317	          0.15204478	         -0.10000000	         -0.04229539	          0.00000000	          0.00000000	          0.00000000	          0.00000000	         -3.65769375	          0.00000000	
          1.06800000	          0.00000000	          0.00000000	          0.00000000	          0.00000000	          0.00000000	          0.00000000	        105.20872869	        555.17031850	         11.05473112	          0.15300828	         -0.10000000	         -0.04154846	          0.00000000	          0.00000000	          0.00000000	          0.00000000	         -3.63472510	          0.00000000	
          1.07200000	          0.00000000	          0.00000000	          0.00000000	          0.00000000	          0.00000000	          0.00000000	        106.90261756	        545.20962103	          9.24402051	          0.15401464	         -0.09999991	         -0.04081346	          0.00000000	          0.00000000	          0.00000000	          0.00000000	         -3.60334951	          0.00000000	
          1.07600000	          0.00000000	          0.00000000	          0.00000000	          0.00000000	          0.00000000	          0.00000000	        108.53133797	        533.55331724	          7.32394898	          0.15499856	         -0.09999951	         -0.04011304	          0.00000000	          0.00000000	          0.00000000	          0.00000000	         -3.56335340	          0.00000000	
          1.08000000	          0.00000000	          0.00000000	          0.00000000	          0.00000000	          0.00000000	          0.00000000	        110.03776623	        520.26639781	          5.34318518	          0.15592000	         -0.09999900	         -0.03947225	          0.00000000	          0.00000000	          0.00000000	          0.00000000	         -3.51434615	          0.00000000	
          1.08400000	          0.00000000	          0.00000000	          0.00000000	          0.00000000	          0.00000000	          0.00000000	        111.35998368	        505.37542247	          3.37925472	          0.15677096	         -0.09999900	         -0.03891111	          0.00000000	          0.00000000	          0.00000000	          0.00000000	         -3.45570471	          0.00000000	
          1.08800000	          0.00000000	          0.00000000	          0.00000000	          0.00000000	          0.00000000	          0.00000000	        112.40775062	        488.91024917	          1.50038059	          0.15754892	         -0.09999900	         -0.03843504	          0.00000000	          0.00000000	          0.00000000	          0.00000000	         -3.38686911	          0.00000000	
          1.09200000	          0.00000000	          0.00000000	          0.00000000	          0.00000000	          0.00000000	          0.00000000	        113.04547375	        470.93825050	         -0.25425541	          0.15827797	         -0.09999900	         -0.03802118	          0.00000000	          0.00000000	          0.00000000	          0.00000000	         -3.30757568	          0.00000000	
          1.09600000	          0.00000000	          0.00000000	          0.00000000	          0.00000000	          0.00000000	          0.00000000	        113.11778449	        451.54095782	         -1.84079324	          0.15903955	         -0.09999900	         -0.03762807	          0.00000000	          0.00000000	          0.00000000	          0.00000000	         -3.21771134	          0.00000000	
          1.10000000	          0.00000000	          0.00000000	          0.00000000	          0.00000000	          0.00000000	          0.00000000	        112.49130772	        430.80057668	         -3.18626373	          0.15994338	         -0.09999900	         -0.03721492	          0.00000000	          0.00000000	          0.00000000	          0.00000000	         -3.11699210	          0.00000000	
          1.10400000	          0.00000000	          0.00000000	          0.00000000	          0.00000000	          0.00000000	          0.00000000	        111.07331183	        408.83135732	         -4.22876384	          0.16105800	         -0.09999900	         -0.03675113	          0.00000000	          0.00000000	          0.00000000	          0.00000000	         -3.00485445	          0.00000000	
          1.10800000	          0.00000000	          0.00000000	          0.00000000	          0.00000000	          0.00000000	          0.00000000	        108.80846120	        385.77331209	         -4.96382512	          0.16230701	         -0.09999900	         -0.03623515	          0.00000000	          0.00000000	          0.00000000	          0.00000000	         -2.88063029	          0.00000000	
          1.11200000	          0.00000000	          0.00000000	          0.00000000	          0.00000000	          0.00000000	          0.00000000	        105.67230213	        361.75601490	         -5.42505577	          0.16361010	         -0.09999812	         -0.03572199	          0.00000000	          0.00000000	          0.00000000	          0.00000000	         -2.74383799	          0.00000000	
          1.11600000	          0.00000000	          0.00000000	          0.00000000	          0.00000000	          0.00000000	          0.00000000	        101.67076631	        336.94975440	         -5.64106891	          0.16498163	         -0.09999800	         -0.03527161	          0.00000000	          0.00000000	          0.00000000	          0.00000000	         -2.59450475	          0.00000000	
          1.12000000	          0.00000000	          0.00000000	          0.00000000	          0.00000000	          0.00000000	          0.00000000	         96.84679602	        311.66461890	         -5.63459156	          0.16652994	         -0.09999800	         -0.03487161	          0.00000000	          0.00000000	          0.00000000	          0.00000000	         -2.43348081	          0.00000000	
          1.12400000	          0.00000000	          0.00000000	          0.00000000	          0.00000000	          0.00000000	          0.00000000	         91.28593935	        286.37108549	         -5.44096442	          0.16833174	         -0.09999800	         -0.03450975	          0.00000000	          0.00000000	          0.00000000	          0.00000000	         -2.26263241	          0.00000000	
          1.12800000	          0.00000000	          0.00000000	          0.00000000	          0.00000000	          0.00000000	          0.00000000	         85.11260773	        261.64448118	         -5.10429762	          0.17033527	         -0.09999800	         -0.03419096	          0.00000000	          0.00000000	          0.00000000	          0.00000000	         -2.08483002	          0.00000000	
          1.13200000	          0.00000000	          0.00000000	          0.00000000	          0.00000000	          0.00000000	          0.00000000	         78.48929030	        238.05639143	         -4.65923820	          0.17247488	         -0.09999800	         -0.03388389	          0.00000000	          0.00000000	          0.00000000	          0.00000000	         -1.90374583	          0.00000000	
          1.13600000	          0.00000000	          0.00000000	          0.00000000	          0.00000000	          0.00000000	          0.00000000	         71.63049902	        216.02781258	         -4.12857066	          0.17469969	         -0.09999800	         -0.03353630	          0.00000000	          0.00000000	          0.00000000	          0.00000000	         -1.72352265	          0.00000000	
          1.14000000	          0.00000000	          0.00000000	          0.00000000	          0.00000000	          0.00000000	          0.00000000	         64.80736550	        195.72364510	         -3.54231418	          0.17688380	         -0.09999800	         -0.03310613	          0.00000000	          0.00000000	          0.00000000	          0.00000000	         -1.54837654	          0.00000000	
          1.14400000	          0.00000000	          0.00000000	          0.00000000	          0.00000000	          0.00000000	          0.00000000	         58.30921428	        177.03313225	         -2.94396458	          0.17879675	         -0.09999800	         -0.03258105	          0.00000000	          0.00000000	          0.00000000	          0.00000000	         -1.38213809	          0.00000000	
